PathFileType	4	(X/Y/Z)	pose_F01_0-96.trc
DataRate	CameraRate	NumFrames	NumMarkers	Units	OrigDataRate	OrigDataStartFrame	OrigNumFrames
30	30	4	21	m	30	0	96
Frame#	Time	CHip			RHip			RKnee			RAnkle			RBigToe			RSmallToe			RHeel			LHip			LKnee			LAnkle			LBigToe			LSmallToe			LHeel			Neck			Nose			RShoulder			RElbow			RWrist			LShoulder			LElbow			LWrist			
		X1	Y1	Z1	X2	Y2	Z2	X3	Y3	Z3	X4	Y4	Z4	X5	Y5	Z5	X6	Y6	Z6	X7	Y7	Z7	X8	Y8	Z8	X9	Y9	Z9	X10	Y10	Z10	X11	Y11	Z11	X12	Y12	Z12	X13	Y13	Z13	X14	Y14	Z14	X15	Y15	Z15	X16	Y16	Z16	X17	Y17	Z17	X18	Y18	Z18	X19	Y19	Z19	X20	Y20	Z20	X21	Y21	Z21	
0	0.0	-0.1750308362552697	1.8485247464738574	-0.519944172517457	-0.197948950109538	1.8117889246178698	-0.3792644731005116	-0.21806186188901958	1.7218473397835694	-0.44622503994223456	-0.23340980875007755	1.6074470040361803	-0.40615550202904727	-0.24022064634702917	1.5444703294956772	-0.39682950301933334	-0.22607504932335257	1.5533633753598195	-0.40832200718259243	-0.206179594989706	1.604747922229769	-0.4454028460584054	-0.18682336769132357	1.836072115888217	-0.5583941109199936	-0.22291959657093902	1.719922159229063	-0.5466421817130345	-0.1933412493711676	1.5887773314079996	-0.5660532183587152	-0.2539710161001081	1.5326474534041212	-0.5069758692679958	-0.24428168053250318	1.518942533711041	-0.5392802774207572	-0.16011698271577238	1.5492589717942844	-0.5879131490154453	-0.20031877830987074	1.9907796791328547	-0.5566151378442145	-0.22070519716077733	2.0624501402027713	-0.5552111059868547	-0.23162214759542757	2.0020434078354787	-0.39653363767403715	-0.23154656865516238	1.9204355642653168	-0.416232711970253	-0.25780483543661403	1.8604191315055785	-0.33081754272141844	-0.1919690421868489	1.991554470754118	-0.5912545114697987	-0.14515802594704694	1.9227059871823218	-0.7044991265684284	-0.17869366102889817	1.8467650067072172	-0.6784396370561814
1	0.03333333333333333	-0.17809451926788122	1.847399933763755	-0.5208049878258603	-0.20006427326826404	1.8133547388680633	-0.38597481881035883	-0.21790765220871344	1.7204945080116467	-0.4462184616703558	-0.23154226983528345	1.6050825900646266	-0.40795160832775834	-0.24022064634702917	1.5444703294956772	-0.39682950301933334	-0.22607504932335257	1.5533633753598195	-0.40832200718259243	-0.20618857190662637	1.6022068306764516	-0.44508279291624087	-0.1877469511519574	1.8361505833947815	-0.5616185078030785	-0.22077862125582123	1.7186384428255888	-0.5488615713031668	-0.19359899644770157	1.5874562920816861	-0.5654592807769389	-0.2519332180789085	1.5328058268987355	-0.5091557985257013	-0.24248050350418845	1.520428644083709	-0.5411861299481195	-0.16232719127443973	1.5503704213883918	-0.5854893181687316	-0.20032359255983168	1.9907694003798688	-0.5567813845396304	-0.22072280151593526	2.062370049474421	-0.5552118841739084	-0.2306822006322572	2.0009264788542325	-0.4014433007140074	-0.23141609775531788	1.9189892734809353	-0.41597594806933685	-0.25642769187097036	1.8578656552395445	-0.33572195169514885	-0.190771004287212	1.9917204620444378	-0.5964607122300893	-0.14750926378332885	1.9214301360470232	-0.7022254190343538	-0.17870467729741632	1.8454935356395443	-0.6782376051903152
2	0.06666666666666667	-0.18115820228049276	1.8462751210536525	-0.5216658031342636	-0.20217959642699007	1.8149205531182568	-0.3926851645202061	-0.2177534425284073	1.719141676239724	-0.446211883398477	-0.22967473092048935	1.6027181760930729	-0.4097477146264694	-0.24022064634702917	1.5444703294956772	-0.39682950301933334	-0.22607504932335257	1.5533633753598195	-0.40832200718259243	-0.20619754882354674	1.5996657391231344	-0.4447627397740763	-0.1886705346125912	1.8362290509013461	-0.5648429046861635	-0.21863764594070345	1.7173547264221145	-0.5510809608932992	-0.19385674352423554	1.5861352527553727	-0.5648653431951625	-0.24989542005770893	1.5329642003933497	-0.5113357277834067	-0.24067932647587373	1.521914754456377	-0.5430919824754818	-0.16453739983310708	1.5514818709824991	-0.5830654873220179	-0.2003284068097926	1.990759121626883	-0.5569476312350464	-0.2207404058710932	2.062289958746071	-0.5552126623609621	-0.22974225366908682	1.9998095498729858	-0.40635296375397767	-0.23128562685547338	1.9175429826965538	-0.4157191841684207	-0.2550505483053267	1.8553121789735105	-0.34062636066887925	-0.1895729663875751	1.9918864533347576	-0.60166691299038	-0.14986050161961076	1.9201542849117246	-0.6999517115002791	-0.17871569356593447	1.8442220645718714	-0.678035573324449
3	0.1	-0.1842218852931043	1.84515030834355	-0.5225266184426669	-0.2042949195857161	1.8164863673684504	-0.3993955102300533	-0.21759923284810118	1.7177888444678013	-0.44620530512659823	-0.22780719200569524	1.6003537621215191	-0.4115438209251805	-0.24022064634702917	1.5444703294956772	-0.39682950301933334	-0.22607504932335257	1.5533633753598195	-0.40832200718259243	-0.2062065257404671	1.597124647569817	-0.4444426866319118	-0.18959411807322502	1.8363075184079107	-0.5680673015692485	-0.21649667062558567	1.7160710100186403	-0.5533003504834315	-0.19411449060076952	1.5848142134290593	-0.5642714056133861	-0.24785762203650935	1.533122573887964	-0.5135156570411122	-0.238878149447559	1.523400864829045	-0.5449978350028442	-0.16674760839177444	1.5525933205766065	-0.5806416564753042	-0.20033322105975354	1.990748842873897	-0.5571138779304624	-0.22075801022625113	2.0622098680177205	-0.5552134405480158	-0.22880230670591645	1.9986926208917393	-0.4112626267939479	-0.23115515595562888	1.9160966919121722	-0.4154624202675045	-0.25367340473968303	1.8527587027074766	-0.34553076964260965	-0.1883749284879382	1.9920524446250774	-0.6068731137506707	-0.15221173945589267	1.918878433776426	-0.6976780039662045	-0.17872670983445263	1.8429505935041985	-0.6778335414585828
